<?xml version="1.0" encoding="utf-8"?>
<!-- Generator: Adobe Illustrator 22.1.0, SVG Export Plug-In . SVG Version: 6.00 Build 0)  -->
<svg version="1.1" id="Layer_1" xmlns="http://www.w3.org/2000/svg" xmlns:xlink="http://www.w3.org/1999/xlink" x="0px" y="0px"
	 viewBox="0 0 16 16" style="enable-background:new 0 0 16 16;" xml:space="preserve">
<style type="text/css">
	.st0{fill:#FFFFFF;}
	.st1{fill:#646766;}
	.st2{fill:none;stroke:#4D83B8;stroke-miterlimit:10;stroke-dasharray:1;}
	.st3{fill:none;stroke:#4D83B8;stroke-miterlimit:10;}
	.st4{fill:none;stroke:#4D83B8;stroke-miterlimit:10;stroke-dasharray:1,1;}
	.st5{fill:none;stroke:#4D83B8;stroke-linecap:square;stroke-miterlimit:10;}
</style>
<rect class="st0" width="13" height="11"/>
<polygon class="st0" points="12,11.1 14.4,10.9 9.5,6.5 9.5,13.1 11.2,11.5 12.5,14.5 13.4,14.1 "/>
<path class="st1" d="M15.6,11.4l-6.5-6v8.9l2-1.9l1.1,2.7l1.8-0.8l-1.2-2.7L15.6,11.4z M13.3,13.9l-0.8,0.4l-1.3-2.9l-1.6,1.5V6.7
	l4.6,4.2L12,11L13.3,13.9z"/>
<line class="st2" x1="0" y1="0.5" x2="13" y2="0.5"/>
<line class="st3" x1="0.5" y1="0.5" x2="0.5" y2="1"/>
<line class="st4" x1="0.5" y1="2" x2="0.5" y2="9.5"/>
<line class="st3" x1="0.5" y1="10" x2="0.5" y2="10.5"/>
<line class="st2" x1="0" y1="10.5" x2="7.5" y2="10.5"/>
<line class="st2" x1="12.5" y1="2" x2="12.5" y2="7.5"/>
<line class="st5" x1="2.5" y1="3.5" x2="10.5" y2="3.5"/>
<line class="st5" x1="2.5" y1="6.5" x2="7.5" y2="6.5"/>
</svg>
